<svg id="Layer_3" enable-background="new 0 0 64 64" height="512" viewBox="0 0 64 64" width="512" xmlns="http://www.w3.org/2000/svg"><g><path d="m43 13.462v42.538h-30v-42.536.001c.588.34 1.271.535 2 .535.38 0 .741-.07 1.089-.169.383 1.81 1.987 3.169 3.911 3.169.18 0 .352-.03.526-.053.685 1.219 1.976 2.053 3.474 2.053 1.202 0 2.267-.541 3-1.38.733.839 1.798 1.38 3 1.38.047 0 .091-.012.137-.014.144.564.408 1.074.763 1.514-.554.687-.9 1.549-.9 2.5 0 2.209 1.791 4 4 4s4-1.791 4-4c0-.951-.346-1.813-.901-2.5.555-.687.901-1.549.901-2.5 0-.498-.102-.969-.268-1.409 1.097-.531 1.921-1.536 2.18-2.76.347.099.708.169 1.088.169.729 0 1.413-.195 2.001-.536z" fill="#f2c351"/><path d="m43 62h-30c-1.657 0-3-1.343-3-3 0-1.657 1.343-3 3-3h30c1.657 0 3 1.343 3 3 0 1.657-1.343 3-3 3z" fill="#d5cec2"/><path d="m43 43h5c1.105 0 2-.895 2-2v-17c0-1.105-.895-2-2-2h-5v-4h5c3.314 0 6 2.686 6 6v17c0 3.314-2.686 6-6 6h-5z" fill="#d5cec2"/><path d="m41.707 6.071c-.603-.558-1.377-.922-2.236-1.024-.686-1.216-1.975-2.047-3.471-2.047-.692 0-1.333.192-1.9.501-.733-.908-1.842-1.501-3.1-1.501-.732 0-1.41.211-2 .555-.59-.344-1.268-.555-2-.555-.951 0-1.813.346-2.5.901-.687-.555-1.549-.901-2.5-.901-1.498 0-2.789.834-3.474 2.053-.174-.023-.346-.053-.526-.053-1.496 0-2.785.831-3.471 2.047-1.984.236-3.529 1.905-3.529 3.953 0 2.209 1.791 4 4 4 .38 0 .741-.07 1.089-.169.383 1.81 1.987 3.169 3.911 3.169.18 0 .352-.03.526-.053.685 1.219 1.976 2.053 3.474 2.053 1.202 0 2.267-.541 3-1.38.733.839 1.798 1.38 3 1.38.047 0 .091-.012.137-.014.144.564.408 1.074.763 1.514-.554.687-.9 1.549-.9 2.5 0 2.209 1.791 4 4 4s4-1.791 4-4c0-.951-.346-1.813-.901-2.5.555-.687.901-1.549.901-2.5 0-.498-.102-.969-.268-1.409 1.097-.531 1.921-1.536 2.18-2.76.347.099.708.169 1.088.169 2.209 0 4-1.791 4-4 0-1.967-1.422-3.594-3.293-3.929z" fill="#e7e4dd"/><g fill="#f7d881"><path d="m19 52c-1.105 0-2-.895-2-2v-18c0-1.105.895-2 2-2 1.105 0 2 .895 2 2v18c0 1.105-.895 2-2 2z"/><path d="m28 52c-1.105 0-2-.895-2-2v-18c0-1.105.895-2 2-2 1.105 0 2 .895 2 2v18c0 1.105-.895 2-2 2z"/><path d="m37 52c-1.105 0-2-.895-2-2v-18c0-1.105.895-2 2-2 1.105 0 2 .895 2 2v18c0 1.105-.895 2-2 2z"/></g><g><path d="m48 17h-4v-3.025c1.207-.914 2-2.347 2-3.974 0-2.323-1.595-4.32-3.833-4.854-.606-.498-1.318-.841-2.09-1.01-1.256-1.791-3.647-2.602-5.74-1.838-1.424-1.296-3.547-1.669-5.337-.867-1.458-.655-3.143-.547-4.5.254-.763-.451-1.615-.686-2.5-.686-1.569 0-3.041.752-3.979 2-.007 0-.014 0-.021 0-1.625 0-3.146.808-4.078 2.136-2.268.498-3.922 2.509-3.922 4.864 0 1.627.793 3.061 2 3.974v41.167c-1.721.447-3 1.999-3 3.859 0 2.204 1.794 3.998 4 3.998h30c2.205 0 3.999-1.794 3.999-3.999 0-1.859-1.279-3.411-3-3.858v-7.143h4c3.859 0 7-3.14 7-7v-16.998c.001-3.86-3.14-7-6.999-7zm-4 6h4c.552 0 1 .448 1 1v16.999c0 .552-.448 1-1 1h-4zm-29.354-15.96c.316-.038.596-.224.753-.501.585-1.038 1.766-1.662 2.891-1.509.002 0 .102.014.104.015.409.056.802-.146 1.003-.501.535-.953 1.532-1.544 2.603-1.544.675 0 1.322.234 1.872.678.366.296.89.296 1.257 0 .968-.783 2.265-.901 3.369-.259.311.181.696.182 1.006 0 1.309-.76 2.906-.42 3.818.71.303.376.833.484 1.256.25 1.486-.807 3.245-.217 4.022 1.16.157.277.436.464.753.501.636.076 1.216.34 1.675.765.14.13.314.216.503.25 1.43.256 2.469 1.495 2.469 2.945 0 1.654-1.346 3-3 3-.241 0-.5-.042-.815-.131-.265-.075-.553-.038-.79.105s-.405.378-.462.649c-.188.89-.8 1.662-1.636 2.067-.466.226-.683.769-.5 1.253.134.359.203.715.203 1.057 0 .675-.234 1.322-.679 1.872-.296.367-.296.89 0 1.257.444.549.679 1.196.679 1.871 0 1.654-1.346 3-3 3s-3-1.346-3-3c0-.675.235-1.322.679-1.871.296-.367.296-.89 0-1.257-.275-.341-.468-.722-.573-1.133-.113-.444-.514-.753-.969-.753-.014 0-.028 0-.042.001-.057.002-.112.008-.095.013-.864 0-1.662-.368-2.247-1.038-.19-.217-.464-.342-.753-.342-.288 0-.562.125-.752.342-.586.669-1.384 1.038-2.248 1.038-1.071 0-2.068-.591-2.603-1.543-.2-.356-.59-.549-1.003-.501l-.109.015c-.094.012-.188.029-.285.029-1.408 0-2.642-.999-2.933-2.376-.057-.271-.225-.506-.462-.649-.236-.143-.521-.18-.79-.105-.315.088-.574.13-.815.13-1.654 0-3-1.346-3-3 0-1.508 1.138-2.781 2.646-2.96zm.354 7.96c.136 0 .272-.006.411-.02.778 1.795 2.577 3.02 4.589 3.02h.021c.938 1.248 2.41 2 3.979 2 1.086 0 2.138-.363 3-1.018.707.537 1.541.878 2.417.983.079.183.169.36.27.533-.452.763-.687 1.615-.687 2.502 0 2.757 2.243 5 5 5s5-2.243 5-5c0-.885-.235-1.737-.686-2.5.45-.764.686-1.615.686-2.5 0-.314-.032-.63-.096-.947.738-.529 1.322-1.25 1.683-2.073.138.013.276.02.413.02.342 0 .677-.035 1-.101v40.101h-28v-40.102c.323.066.658.102 1 .102zm29.999 44c0 1.102-.897 1.998-1.999 1.998h-30c-1.103 0-2-.896-2-1.999 0-1.104.897-2 2-2h30c1.102 0 1.999.897 1.999 2.001zm8.001-18.002c0 2.758-2.243 5-5 5h-4v-2h4c1.654 0 3-1.346 3-3v-16.998c0-1.654-1.346-3-3-3h-4v-2h4c2.757 0 5 2.243 5 5z"/><path d="m19 52.998c1.654 0 3-1.345 3-2.998v-18c0-1.654-1.346-3-3-3-1.655 0-3 1.345-3 3v18c0 1.653 1.346 2.998 3 2.998zm-1-20.998c0-.551.448-1 1-1 .551 0 1 .448 1 1v18c0 .551-.448.998-1 .998h-.001c-.551 0-.999-.447-.999-.998z"/><path d="m28 52.998c1.654 0 3-1.345 3-2.998v-18c0-1.654-1.346-3-3-3-1.655 0-3 1.345-3 3v18c0 1.653 1.346 2.998 3 2.998zm-1-20.998c0-.551.448-1 1-1 .551 0 1 .448 1 1v18c0 .551-.448.998-1 .998h-.001c-.551 0-.999-.447-.999-.998z"/><path d="m37 52.998c1.654 0 3-1.345 3-2.998v-18c0-1.654-1.346-3-3-3-1.655 0-3 1.345-3 3v18c0 1.653 1.346 2.998 3 2.998zm-1-20.998c0-.551.448-1 1-1 .551 0 1 .448 1 1v18c0 .551-.448.998-1 .998h-.001c-.551 0-.999-.447-.999-.998z"/></g></g></svg>